<svg width="8" height="8" viewBox="0 0 8 8" fill="none" xmlns="http://www.w3.org/2000/svg">
<path d="M7.60461 6.40698C7.9093 6.68823 7.9093 7.18042 7.60461 7.46167C7.46399 7.60229 7.27649 7.67261 7.08899 7.67261C6.87805 7.67261 6.69055 7.60229 6.54993 7.46167L4.08899 5.00073L1.60461 7.46167C1.46399 7.60229 1.27649 7.67261 1.08899 7.67261C0.878052 7.67261 0.690552 7.60229 0.549927 7.46167C0.245239 7.18042 0.245239 6.68823 0.549927 6.40698L3.01086 3.92261L0.549927 1.46167C0.245239 1.18042 0.245239 0.688232 0.549927 0.406982C0.831177 0.102295 1.32336 0.102295 1.60461 0.406982L4.08899 2.86792L6.54993 0.406982C6.83118 0.102295 7.32336 0.102295 7.60461 0.406982C7.9093 0.688232 7.9093 1.18042 7.60461 1.46167L5.14368 3.94604L7.60461 6.40698Z" fill="black"/>
</svg>
